<?xml version="1.0" encoding="utf-8"?>
<!-- Generator: Adobe Illustrator 28.1.0, SVG Export Plug-In . SVG Version: 6.00 Build 0)  -->
<svg version="1.1" id="Layer_1" xmlns="http://www.w3.org/2000/svg" xmlns:xlink="http://www.w3.org/1999/xlink" x="0px" y="0px"
	 viewBox="0 0 365 273.9" style="enable-background:new 0 0 365 273.9;" xml:space="preserve">
<style type="text/css">
	.st0{fill:#0C0D0D;}
</style>
<path class="st0" d="M141.2,246.2c-8.5-5.4-18.3-8.1-27.9-6.2l-0.2-0.1c3.8-3.5,0.9-8.9-5.4-12.9c-13.4-8.5-25.4-8-33.4-4.7
	l-18.9,7.8l68.8,43.8l16.8-7C153.8,261.6,155.2,255.1,141.2,246.2L141.2,246.2z M68.9,231.8l8.6-3.5c7.4-3.1,14.8-1.8,21.9,2.8
	c10.6,6.8,4.2,10.3,1,11.6l-8.7,3.6L68.9,231.8L68.9,231.8z M134.1,262.5l-10.4,4.3L98,250.3l9.1-3.8c6.7-2.8,15.8-2.7,25.2,3.3
	C138.9,254.1,142.2,259.1,134.1,262.5L134.1,262.5z"/>
<polygon class="st0" points="262.8,208.5 201.6,169.5 194,172.7 262.8,216.5 295.4,202.9 287.9,198.2 "/>
<polygon class="st0" points="354.5,178.5 365,174.1 296.2,130.3 288.6,133.5 346,170.1 345.8,170.1 268,142 258.2,146.1 
	326.9,189.9 334.5,186.7 278.9,151.3 279,151.2 "/>
<path class="st0" d="M228.6,206.9c-6.2-3.6-14.1-5.5-20.2-3.7l-0.2-0.1c5.2-4.2-0.3-10.2-7.8-15c-10.9-6.9-23.4-8.4-33.1-4.4
	l-20,8.3l68.8,43.8l7.6-3.1l-30.6-19.5l10.3-4.3c3.9-1.6,9.1-3.2,19.2,2.6l11.2,6.6c3.5,2.1,9.2,5.1,12,5.5l9.2-3.8
	c-3.1,0-6.1-0.8-14.1-5.5L228.6,206.9L228.6,206.9z M193.8,205.6l-7.5,3.1L162,193.2l9.1-3.8c7.1-2.9,15.4-1.9,22.1,2.4
	C206.4,200.3,198.2,203.7,193.8,205.6z"/>
<polygon class="st0" points="236.3,155 305,198.8 312.6,195.7 243.9,151.9 "/>
<polygon class="st0" points="173.4,245.6 148.8,229.9 171.7,220.4 164.2,215.6 141.3,225.1 119.7,211.3 144,201.3 136.5,196.5 
	104.6,209.7 173.4,253.5 206.3,239.9 198.8,235.1 "/>
<path class="st0" d="M155,113c-1.2-1.5-3-2.3-5.4-2.3c-2.2,0-5.1,0.7-8.4,2.1c-18.2,7.6-24.7,22.8-30.7,50.2
	c-3.5,15.9-5.1,27.4-1.4,32c1.2,1.5,2.9,2.2,5.2,2.2l0,0c2.2,0,5.1-0.7,8.4-2.1c20-8.3,25.6-26.8,30.7-50.2
	C156.6,130.9,159,118,155,113L155,113z M138.9,151.2c-4.9,22.1-7.4,29.4-13.3,31.8c-0.8,0.3-1.4,0.5-1.9,0.5c-0.7,0-1.2-0.2-1.6-0.7
	c-1.8-2.3-0.5-10.2,3.1-26.1c4.9-22.1,7.3-29.4,13.1-31.7c1.8-0.7,2.9-0.6,3.6,0.2C143.7,127.4,142.4,135.4,138.9,151.2L138.9,151.2
	z"/>
<path class="st0" d="M270.7,61.7l-17.5,78l19.7-8c18.7-7.6,24.8-21.8,31.2-50.6c3.5-15.4,3.7-24.3,0.7-28c-1.1-1.4-2.7-2.1-4.9-2.1
	s-4.6,0.6-7.8,1.9C292.1,52.9,270.7,61.7,270.7,61.7z M289.7,87.6c-5.2,23.6-8.3,28.3-15.2,31.2l-4.2,1.8l11.6-52.4l0.1,0l4.1-1.7
	c3-1.2,4.7-1.2,5.7,0C293.5,68.6,292.4,75.3,289.7,87.6L289.7,87.6z"/>
<path class="st0" d="M198.1,162.6l2.2-72.8l-17.8,7.4l-33.2,85.6l14.5-6l5.5-16.1l0.1,0l15.1-6.2l-1.1,14.2L198.1,162.6L198.1,162.6
	z M175.4,145.6l0.1-0.4l13-37.7l0.6-0.2l-2.6,33.7L175.4,145.6z"/>
<path class="st0" d="M98.8,184c1.5-6.8,1.4-11.4-0.3-13.5c-0.8-1-2-1.5-3.6-1.5c-1.1,0-2.1,0.2-2.8,0.4l-0.3,0.1l0.1-0.6l0.1,0
	c6.1-3.8,11.5-12.5,13.6-21.7c1.3-5.6,1-9.6-0.8-11.8c-2.1-2.6-6.3-2.6-12.1-0.2l-22.5,9.2l-17.5,78.5l21.1-8.7
	C90.4,207.2,96.6,193.9,98.8,184L98.8,184z M81.2,151.7L81.2,151.7l4.2-1.7c2.3-1,4-0.9,4.9,0.3c1.1,1.4,0.8,3.8,0.4,5.6
	c-1.4,6.1-4.6,10.4-9.3,12.4l-4.3,1.8L81.2,151.7L81.2,151.7z M74.5,181.9L74.5,181.9l4.8-2c2.4-1,4.1-0.9,5.1,0.4
	c1.1,1.3,1.2,4,0.3,7.8c-0.9,3.9-3.4,10.8-10.3,13.7l-4.8,2L74.5,181.9L74.5,181.9z"/>
<path class="st0" d="M243.5,107.9c7.5-5.1,12.2-12.6,14.6-23.6c1.4-6.3,1.1-10.9-0.8-13.3c-1.9-2.4-5.7-2.6-10.9-0.4l-24.3,10.1
	l-17.5,79.1l14.1-5.8l7.3-32.9l0.1,0l5.5-2.3c1-0.4,1.7-0.6,2.3-0.6s1.1,0.2,1.5,0.6c1.1,1.4,0.8,5.5-1.2,14.4
	c-1.9,8.6-2.5,13-2.1,15.2l15.3-6.4l0.1-0.7c-0.3-0.1-0.6-0.2-0.9-0.5c-0.8-1.1-0.4-4.3,2.2-16.9c1.5-7.1,2.4-12.3,0.5-14.6
	c-1-1.3-2.9-1.6-5.8-0.8l-0.3,0.1L243.5,107.9L243.5,107.9L243.5,107.9z M233.5,106.4l-4.9,2l4.6-20.9l0.1,0l4.4-1.8
	c2.7-1.1,4.4-1.1,5.4,0.1c0.9,1.2,1,3.4,0.2,7.1C242.7,96,240.3,103.6,233.5,106.4L233.5,106.4z"/>
<polygon class="st0" points="80.8,132.2 27.3,98.1 27.9,97.8 28,97.9 91.4,127.8 102.2,123.3 58.1,85.3 58.7,85.1 112.2,119.2 
	125.3,113.8 56.9,70.3 36.3,78.8 74.2,110.6 73.6,110.8 73.5,110.8 20.8,85.2 0,93.8 68.3,137.4 "/>
<path class="st0" d="M145.1,103.9L145.1,103.9c5.1,0,10.2-1.1,15.4-3.2c6.2-2.6,9.4-5.4,9.7-8.6c0.4-4-3.9-8.7-13.5-14.8L110.8,48
	l-14.1,5.8L147.1,86c3.5,2.2,5.3,4.2,5.1,5.8c-0.1,1-0.9,1.8-2.4,2.4c-1.1,0.5-2.4,0.7-3.8,0.7c-3.1,0-6.9-1.3-10.8-3.8L84.7,58.8
	l-14.1,5.8l45.7,29.1C127.3,100.8,136.2,103.9,145.1,103.9z"/>
<polygon class="st0" points="253.7,60.1 185.3,16.6 171.3,22.4 239.6,65.9 "/>
<path class="st0" d="M229.6,34.1c15.1,9.6,28.6,17.5,42.4,17.5c4.7,0,9.2-0.9,13.7-2.8c6.7-2.8,10.1-5.8,10.4-9.2
	c0.4-4.3-4.1-9.2-14.7-15.9l-2.3-1.5l-13.5,5.6c8.7,5.7,13.4,9.2,13.2,11.7c-0.1,0.9-0.8,1.6-2.1,2.1c-1.3,0.5-2.6,0.8-3.9,0.8
	c-5.4,0-12.9-4.4-28.6-14.5c-13.9-8.8-20.4-13.3-20.1-16.1c0.1-0.9,0.8-1.6,2.3-2.2c1.1-0.5,2.3-0.7,3.6-0.7c4.3,0,9.6,2.8,16.9,7.4
	l13.5-5.6l-2.6-1.6C248,3,239.2,0,230.7,0c-5,0-9.9,1-15,3.1c-6,2.5-9,5.3-9.3,8.6C205.8,18.4,217,26.1,229.6,34.1L229.6,34.1z"/>
<path class="st0" d="M138.1,56.1c10.8,6.9,20,7.7,26,7.7c3.9,0,7.5-0.4,11-0.7c3.2-0.3,6.1-0.6,9-0.6c5.1,0,9,1,12.4,3.2
	c2.1,1.4,4.6,3.4,4.4,5.4c-0.1,1.2-1.1,2.1-2.9,2.9c-1.4,0.6-2.8,0.9-4.4,0.9c-3.3,0-6.8-1.3-11.2-4.1l-2.3-1.5l-13.5,5.6l4.1,2.6
	c6.8,4.3,13.9,6.5,21.2,6.5c5.4,0,10.9-1.2,16.6-3.5c6.5-2.7,10-5.8,10.2-9.1c0.3-3.8-3.4-8.2-11.1-13.1s-15.6-7.2-25-7.2
	c-3.9,0-7.5,0.4-11.1,0.7c-3.2,0.3-6.2,0.6-9.2,0.6c-5.2,0-9-1-12.4-3.1c-2.9-1.8-4.3-3.5-4.1-4.9c0.1-1,0.9-1.9,2.6-2.5
	c2.2-0.9,4.3-1,6.9-0.3c2.3,0.6,4.9,1.9,8.4,4l13.5-5.6l-1.3-0.8c-7.2-4.6-14.8-7-22.6-7c-5.2,0-10.4,1.1-15.5,3.2
	c-6.1,2.5-9.3,5.5-9.6,8.8C128.2,47.7,131.5,51.8,138.1,56.1L138.1,56.1z"/>
</svg>
