<?xml version="1.0" encoding="UTF-8"?>
<svg id="Layer_1" data-name="Layer 1" xmlns="http://www.w3.org/2000/svg" viewBox="0 0 364.95 273.91">
  <defs>
    <style>
      .cls-1 {
        fill: #fff;
        stroke-width: 0px;
      }
    </style>
  </defs>
  <path class="cls-1" d="M141.2,246.18c-8.48-5.4-18.3-8.11-27.92-6.25l-.19-.12c3.78-3.49.9-8.88-5.36-12.86-13.39-8.53-25.4-8.01-33.44-4.68l-18.93,7.84,68.76,43.81,16.77-6.95c12.88-5.33,14.28-11.89.32-20.79ZM68.88,231.78l8.56-3.54c7.43-3.08,14.77-1.77,21.9,2.78,10.59,6.75,4.2,10.31,1,11.63l-8.73,3.62-22.73-14.48ZM134.14,262.45l-10.37,4.3-25.81-16.44,9.07-3.76c6.65-2.75,15.76-2.68,25.2,3.33,6.65,4.24,9.95,9.25,1.91,12.58Z"/>
  <polygon class="cls-1" points="262.84 208.54 201.59 169.52 193.98 172.67 262.75 216.47 295.41 202.94 287.9 198.16 262.84 208.54"/>
  <polygon class="cls-1" points="354.5 178.47 364.95 174.14 296.19 130.33 288.58 133.48 345.98 170.05 345.81 170.12 268.02 142 258.16 146.08 326.93 189.89 334.53 186.74 278.87 151.28 279.04 151.2 354.5 178.47"/>
  <path class="cls-1" d="M228.65,206.9c-6.22-3.6-14.15-5.48-20.19-3.69l-.19-.12c5.25-4.2-.32-10.2-7.83-14.98-10.88-6.94-23.37-8.44-33.05-4.43l-19.96,8.27,68.76,43.81,7.61-3.15-30.62-19.51,10.28-4.26c3.89-1.61,9.13-3.17,19.17,2.59l11.21,6.59c3.54,2.08,9.25,5.08,11.99,5.46l9.16-3.79c-3.07-.04-6.12-.81-14.07-5.51l-12.27-7.27ZM193.75,205.57l-7.52,3.11-24.27-15.46,9.07-3.76c7.09-2.93,15.38-1.92,22.13,2.38,13.29,8.46,5.08,11.87.59,13.73Z"/>
  <polygon class="cls-1" points="236.28 155.02 305.04 198.83 312.64 195.67 243.88 151.87 236.28 155.02"/>
  <polygon class="cls-1" points="173.44 245.57 148.79 229.86 171.69 220.37 164.18 215.59 141.28 225.07 119.7 211.33 143.99 201.27 136.48 196.49 104.59 209.7 173.35 253.5 206.28 239.87 198.76 235.08 173.44 245.57"/>
  <path class="cls-1" d="M155.01,112.97c-1.23-1.53-2.98-2.28-5.35-2.28-2.24,0-5.07.7-8.4,2.08-18.25,7.56-24.67,22.84-30.74,50.2-3.52,15.89-5.11,27.42-1.42,32.03,1.2,1.49,2.91,2.22,5.22,2.22h0c2.23,0,5.07-.71,8.44-2.11,20.01-8.29,25.56-26.83,30.74-50.2,3.1-13.96,5.54-26.91,1.5-31.95ZM138.87,151.23c-4.9,22.1-7.37,29.37-13.26,31.81-.76.31-1.39.47-1.93.47-.67,0-1.2-.24-1.58-.72-1.81-2.26-.46-10.23,3.07-26.13,4.9-22.1,7.35-29.36,13.09-31.74,1.77-.73,2.93-.64,3.65.25,1.83,2.28.48,10.22-3.03,26.07Z"/>
  <path class="cls-1" d="M270.7,61.68l-17.54,78,19.69-8.04c18.7-7.64,24.75-21.78,31.22-50.59,3.46-15.38,3.67-24.27.66-27.96-1.13-1.39-2.72-2.07-4.86-2.07s-4.6.63-7.75,1.91l-21.42,8.75ZM289.68,87.55c-5.24,23.64-8.26,28.32-15.25,31.22l-4.25,1.76,11.62-52.43.1-.04,4.06-1.68c3.02-1.25,4.72-1.24,5.7-.02,1.8,2.24.75,8.9-1.98,21.2Z"/>
  <path class="cls-1" d="M198.14,162.57l2.25-72.78-17.78,7.37-33.17,85.59,14.52-6.01,5.52-16.06.09-.04,15.08-6.25-1.11,14.23,14.61-6.05ZM175.43,145.56l.15-.42,12.99-37.65.56-.24-2.63,33.72-11.07,4.59Z"/>
  <path class="cls-1" d="M98.82,183.96c1.52-6.83,1.42-11.38-.32-13.53-.82-1.02-2.01-1.51-3.62-1.51-1.05,0-2.13.21-2.85.38l-.31.07.14-.61.07-.04c6.06-3.77,11.51-12.48,13.57-21.67,1.26-5.63.99-9.6-.79-11.81-2.07-2.56-6.28-2.63-12.13-.23l-22.46,9.23-17.54,78.53,21.07-8.67c16.77-6.89,22.95-20.2,25.17-30.15ZM81.22,151.71l.1-.04,4.06-1.67c2.33-.96,4.01-.85,4.92.28,1.1,1.36.85,3.79.45,5.59-1.37,6.15-4.58,10.42-9.28,12.35l-4.33,1.79,4.08-18.29ZM74.47,181.92l.1-.04,4.67-1.92c2.37-.97,4.1-.85,5.08.36,1.08,1.33,1.19,3.96.33,7.81-.87,3.88-3.36,10.82-10.28,13.66l-4.77,1.96,4.88-21.83Z"/>
  <path class="cls-1" d="M243.48,107.86c7.52-5.12,12.16-12.61,14.59-23.57,1.4-6.31,1.13-10.9-.77-13.27-1.95-2.43-5.68-2.55-10.95-.36l-24.27,10.05-17.54,79.12,14.06-5.83,7.29-32.89.1-.04,5.53-2.29c.98-.41,1.71-.59,2.32-.59s1.12.22,1.46.64c1.15,1.43.82,5.47-1.16,14.39-1.91,8.63-2.51,12.96-2.08,15.2l15.32-6.35.15-.69c-.31-.07-.63-.2-.86-.52-.8-1.14-.39-4.31,2.22-16.93,1.47-7.13,2.38-12.35.51-14.64-1.04-1.28-2.93-1.55-5.8-.85l-.31.08.13-.62.07-.05ZM233.54,106.44l-4.85,2.01,4.63-20.88.1-.04,4.41-1.82c2.66-1.1,4.44-1.06,5.37.1.94,1.17,1,3.42.2,7.05-.7,3.15-3.05,10.77-9.85,13.59Z"/>
  <polygon class="cls-1" points="80.85 132.21 27.3 98.09 27.92 97.84 28 97.88 91.4 127.84 102.25 123.34 58.13 85.33 58.7 85.09 112.25 119.2 125.27 113.81 56.93 70.27 36.33 78.8 74.15 110.62 73.59 110.85 73.51 110.81 20.82 85.22 0 93.85 68.35 137.39 80.85 132.21"/>
  <path class="cls-1" d="M145.11,103.89h0c5.15,0,10.19-1.05,15.4-3.21,6.25-2.59,9.42-5.4,9.7-8.59.35-4-3.94-8.71-13.5-14.8l-45.95-29.27-14.06,5.82,50.43,32.13c3.54,2.25,5.26,4.2,5.12,5.8-.09.99-.88,1.8-2.37,2.42-1.14.47-2.41.71-3.78.71-3.15,0-6.88-1.31-10.77-3.79l-50.67-32.28-14.06,5.83,45.71,29.12c10.98,6.99,19.86,10.11,28.8,10.11Z"/>
  <polygon class="cls-1" points="253.67 60.1 185.33 16.56 171.27 22.38 239.61 65.92 253.67 60.1"/>
  <path class="cls-1" d="M229.58,34.1c15.05,9.59,28.63,17.53,42.38,17.53,4.7,0,9.18-.91,13.69-2.78,6.71-2.78,10.12-5.79,10.42-9.19.38-4.32-4.15-9.24-14.67-15.94l-2.32-1.48-13.55,5.61c8.74,5.65,13.43,9.2,13.2,11.69-.08.89-.76,1.59-2.07,2.13-1.31.55-2.6.81-3.93.81-5.37,0-12.85-4.4-28.62-14.45-13.87-8.84-20.38-13.31-20.14-16.12.08-.9.83-1.63,2.3-2.25,1.15-.47,2.31-.71,3.57-.71,4.3,0,9.64,2.84,16.85,7.43l13.54-5.61-2.56-1.63c-9.66-6.15-18.48-9.14-26.96-9.14-5.01,0-9.91,1.02-14.99,3.12-5.99,2.48-9.04,5.28-9.33,8.56-.59,6.69,10.63,14.42,23.18,22.41Z"/>
  <path class="cls-1" d="M138.09,56.06c10.78,6.87,20.02,7.66,26.04,7.66,3.86,0,7.48-.37,10.98-.72,3.16-.32,6.15-.62,9.02-.62,5.12,0,8.96.99,12.43,3.2,2.13,1.36,4.63,3.39,4.45,5.4-.1,1.15-1.07,2.11-2.87,2.86-1.38.57-2.84.86-4.36.86-3.28,0-6.83-1.29-11.2-4.08l-2.31-1.47-13.47,5.58,4.08,2.6c6.78,4.32,13.91,6.51,21.2,6.51,5.36,0,10.95-1.19,16.63-3.54,6.51-2.7,9.96-5.76,10.25-9.1.33-3.8-3.38-8.21-11.05-13.1-7.67-4.89-15.62-7.17-25.01-7.17-3.86,0-7.52.36-11.06.7-3.21.31-6.25.61-9.16.61-5.18,0-8.99-.96-12.37-3.11-2.88-1.84-4.28-3.49-4.15-4.9.09-1.02.95-1.87,2.57-2.55,2.2-.91,4.34-1,6.91-.3,2.28.59,4.94,1.88,8.35,4.05l13.47-5.58-1.3-.83c-7.24-4.62-14.84-6.96-22.59-6.96-5.18,0-10.39,1.07-15.49,3.19-6.07,2.51-9.29,5.47-9.58,8.78-.32,3.65,3,7.81,9.61,12.03Z"/>
</svg>