<?xml version="1.0" encoding="utf-8"?>
<!-- Generator: Adobe Illustrator 28.1.0, SVG Export Plug-In . SVG Version: 6.00 Build 0)  -->
<svg version="1.1" id="Layer_1" xmlns="http://www.w3.org/2000/svg" xmlns:xlink="http://www.w3.org/1999/xlink" x="0px" y="0px"
	 viewBox="0 0 129.17 48.54" style="enable-background:new 0 0 129.17 48.54;" xml:space="preserve">
<style type="text/css">
	.st0{fill:#DBA0C8;stroke:#DBA0C8;stroke-width:1.2;stroke-miterlimit:10;}
</style>
<g>
	<g>
		<g>
			<path class="st0" d="M123.85,20.82c-0.16,0.8-0.4,1.6-0.64,2.38c-0.83,2.69-2.14,5.2-3.84,7.43c-1.33,1.75-2.93,4.12-3.46,6.02
				c-0.21,0.77-0.44,1.64-0.47,2.32c-0.08,1.72-0.28,1.73,1.32,4.8c0.67,1.29,0.65,1.33-1.23,2.25c-1.71,0.84-4.22-0.14-4.57-0.81
				c-0.77-1.49-0.42-0.74-0.85-1.77c-0.97-2.27-0.85-2.39-0.15-5.35c0.42-1.79,3.86-4.31,6.69-8.44c2.47-3.61,0.96-1.34,2.54-3.92
				c1.26-2.05,2.01-7.49,0.76-10.81c-0.7-1.86-2.52-3.21-3.42-3.54c-3.3-1.19,1.05,1.44,4.6,1.31c0,0,0.47-1.02,2.35,0.75
				C124.6,14.49,124.84,15.74,123.85,20.82z"/>
			<path class="st0" d="M92.59,10.46"/>
			<path class="st0" d="M100.41,10.89c-1.34,1.05,0,4.44,0,4.44c0.41,1.14,2.66-0.19,4-0.99c0,0,0.37-0.33,1.07-0.78
				c0,0,4.58-4.45,11.38-0.26c1.02,0.63,0.85,0.73,2.83,1.61c1.2,0.54,2.84,1.17,4.3,1.41c2.71,0.45,3.49-0.74,3.62-1.03
				c0.12-0.29,0.04-2.98-0.47-5.32c-0.22-1.01-2.56,0.4-4.1,1.38c-0.97,0.62-2.18,0.87-2.91,0.5c-0.27-0.13-0.79-0.51-1.35-0.92
				c-7.05-5.12-15.98-1.21-18.2-0.15L100.41,10.89z"/>
		</g>
		<path class="st0" d="M68.44,20.77c-0.18-1.9-1.06-3.71-2.62-5.08c-0.27-0.24-0.57-0.47-0.89-0.69c-2.61-1.75-2.69-2.17,0.32-5.1
			c4.13-4.02,6.85,0.72,7.59,3.91s-0.34,12.07-2,18.47c-3.44,13.24,2.89-7.18,6.68-0.81c1.64,2.75,3.16,4.26,6.52,5.87
			c1.57,0.75,3.28,1.35,4.24,2.2c0.57,0.51,0.88,1.11,0.72,1.88c-0.2,0.96-1.11,2.2-3.1,3.87C81.84,48.7,76,39.88,75.06,33.2
			c0,0-9.48,18.21-9.4,11.66c0.04-3.24,1.26-8.95,1.84-11.3c1-4.08,1.36-8.25,0.97-12.41L68.44,20.77z"/>
		<path class="st0" d="M62.14,30.79c0-4.61-0.13-10.55-2.89-14.23c-0.53-0.7-1.1-1.4-1.78-2c-4.41-3.94-8.33-3.16-9.88-2.87
			c-2.3,0.44-5.98,2.21-7.45,7.11c0,0-1.66,5.48,0.75,10.01c0.04,0.08,0.04,0.17,0,0.24c-0.45,0.74-2.81,5.01-1.2,9.96
			c1.77,5.45,7.25,7.16,11.63,7.08c7.49-0.13,10.85-4.71,10.84-10.4C62.14,30.79,62.14,34.89,62.14,30.79z M42.2,22.04
			c-0.05-2.13,0.75-4.21,2.26-5.72c0.88-0.88,2.62-2.01,4.32-2.01c5.87,0,6.58,2.19,7.77,4.14c2.22,3.65,2.21,10.37,1.86,16.38
			c-0.28,4.65-2.16,8.23-6.77,8.36c-1.1,0.03-1.1,0-2.57,0c-3.9,0-7.04-3.93-7.27-7.77c-0.08-1.35-0.28-2.74,0.31-4.03
			c0.08-0.17,0.31-0.22,0.44-0.07c0.49,0.57,1.8,1.74,4.53,2.03c1.61,0.17,3.14-0.29,3.98-0.82c0.37-0.24,0.47-0.74,0.25-1.13
			c-1.62-2.85-1.16-2.1-2.12-3.65c-0.42-0.67-0.73,0.45-2.89,0.45c-2.43,0-2.8-1.1-3.35-2.2c-0.06-0.12-0.13-0.3-0.19-0.5
			c-0.34-1.02-0.52-2.1-0.54-3.17L42.2,22.04z"/>
		<path class="st0" d="M25.66,35.43c0.26,0.8,0.51,4.11,2.51,4.11c0.8,0,1.02-2.66,1.04-2.8l0.36-2.4c0.18-1.18,0.3-2.37,0.37-3.56
			c0.5-8.25,1.87-19.52,3.33-22.95c1.56-3.67,5.55-8.8,8.78-3.08c2.36,4.17,0.8,4.07-2.32,5.62c-0.53,0.27-1.02,0.57-1.46,0.9
			c-1.75,1.31-2.98,3.2-3.6,5.3l-0.13,0.45c-1.44,4.92-1.58,10.03-2.11,15.14c-0.31,2.94-1.74,14.1-3.43,14.1
			c-0.76,0-2.82-0.02-3.31-0.87c-4.38-7.57-7.95-39.91-7.95-39.91C15.11,13.33,6.9,22.7,3.57,17.72c-5.13-7.67-0.33-7.85,3.9-9.18
			c3.86-1.21,5.07-3.49,8.17-5.67c4.67-3.28,5.39,1.97,6.01,10.73c0.6,8.55,0.18,7.24,2.25,15.56l0.37,1.47L25.66,35.43z"/>
	</g>
	<g>
		<path class="st0" d="M96.98,37.65c0.46-0.02,0.86,0.31,0.93,0.76c0.19,1.22,0.37,1.66,2.46,4.19c1.04,1.27,1.02,1.32-0.83,2.78
			c-1.69,1.33-4.69,0.83-5.23,0.17c-1.2-1.47-0.64-0.73-1.36-1.75c-0.02-0.02-0.03-0.05-0.05-0.07c-1.72-2.47-0.04-5.87,2.97-6.02
			L96.98,37.65z"/>
	</g>
</g>
</svg>
