<?xml version="1.0" encoding="utf-8"?>
<!-- Generator: Adobe Illustrator 28.1.0, SVG Export Plug-In . SVG Version: 6.00 Build 0)  -->
<svg version="1.1" id="Layer_1" xmlns="http://www.w3.org/2000/svg" xmlns:xlink="http://www.w3.org/1999/xlink" x="0px" y="0px"
	 viewBox="0 0 129.2 48.5" style="enable-background:new 0 0 129.2 48.5;" xml:space="preserve">
<style type="text/css">
	.st0{fill:#0C3EFF;stroke:#0C3EFF;stroke-width:1.2;stroke-miterlimit:10;}
</style>
<g>
	<g>
		<g>
			<path class="st0" d="M123.8,20.8c-0.2,0.8-0.4,1.6-0.6,2.4c-0.8,2.7-2.1,5.2-3.8,7.4c-1.3,1.8-2.9,4.1-3.5,6
				c-0.2,0.8-0.4,1.6-0.5,2.3c-0.1,1.7-0.3,1.7,1.3,4.8c0.7,1.3,0.7,1.3-1.2,2.2c-1.7,0.8-4.2-0.1-4.6-0.8c-0.8-1.5-0.4-0.7-0.8-1.8
				c-1-2.3-0.8-2.4-0.2-5.3c0.4-1.8,3.9-4.3,6.7-8.4c2.5-3.6,1-1.3,2.5-3.9c1.3-2,2-7.5,0.8-10.8c-0.7-1.9-2.5-3.2-3.4-3.5
				c-3.3-1.2,1.1,1.4,4.6,1.3c0,0,0.5-1,2.3,0.8C124.6,14.5,124.8,15.7,123.8,20.8z"/>
			<path class="st0" d="M92.6,10.5"/>
			<path class="st0" d="M100.4,10.9c-1.3,1.1,0,4.4,0,4.4c0.4,1.1,2.7-0.2,4-1c0,0,0.4-0.3,1.1-0.8c0,0,4.6-4.4,11.4-0.3
				c1,0.6,0.8,0.7,2.8,1.6c1.2,0.5,2.8,1.2,4.3,1.4c2.7,0.5,3.5-0.7,3.6-1c0.1-0.3,0-3-0.5-5.3c-0.2-1-2.6,0.4-4.1,1.4
				c-1,0.6-2.2,0.9-2.9,0.5c-0.3-0.1-0.8-0.5-1.3-0.9c-7.1-5.1-16-1.2-18.2-0.1L100.4,10.9z"/>
		</g>
		<path class="st0" d="M68.4,20.8c-0.2-1.9-1.1-3.7-2.6-5.1c-0.3-0.2-0.6-0.5-0.9-0.7c-2.6-1.8-2.7-2.2,0.3-5.1
			c4.1-4,6.8,0.7,7.6,3.9s-0.3,12.1-2,18.5c-3.4,13.2,2.9-7.2,6.7-0.8c1.6,2.8,3.2,4.3,6.5,5.9c1.6,0.8,3.3,1.3,4.2,2.2
			c0.6,0.5,0.9,1.1,0.7,1.9c-0.2,1-1.1,2.2-3.1,3.9c-4.1,3.4-9.9-5.4-10.8-12.1c0,0-9.5,18.2-9.4,11.7c0-3.2,1.3-9,1.8-11.3
			c1-4.1,1.4-8.2,1-12.4L68.4,20.8z"/>
		<path class="st0" d="M62.1,30.8c0-4.6-0.1-10.5-2.9-14.2c-0.5-0.7-1.1-1.4-1.8-2c-4.4-3.9-8.3-3.2-9.9-2.9c-2.3,0.4-6,2.2-7.5,7.1
			c0,0-1.7,5.5,0.8,10c0,0.1,0,0.2,0,0.2c-0.5,0.7-2.8,5-1.2,10c1.8,5.5,7.2,7.2,11.6,7.1c7.5-0.1,10.8-4.7,10.8-10.4
			C62.1,30.8,62.1,34.9,62.1,30.8z M42.2,22c0-2.1,0.8-4.2,2.3-5.7c0.9-0.9,2.6-2,4.3-2c5.9,0,6.6,2.2,7.8,4.1
			c2.2,3.6,2.2,10.4,1.9,16.4c-0.3,4.7-2.2,8.2-6.8,8.4c-1.1,0-1.1,0-2.6,0c-3.9,0-7-3.9-7.3-7.8c-0.1-1.3-0.3-2.7,0.3-4
			c0.1-0.2,0.3-0.2,0.4-0.1c0.5,0.6,1.8,1.7,4.5,2c1.6,0.2,3.1-0.3,4-0.8c0.4-0.2,0.5-0.7,0.2-1.1c-1.6-2.9-1.2-2.1-2.1-3.6
			c-0.4-0.7-0.7,0.5-2.9,0.5c-2.4,0-2.8-1.1-3.3-2.2c-0.1-0.1-0.1-0.3-0.2-0.5c-0.3-1-0.5-2.1-0.5-3.2L42.2,22z"/>
		<path class="st0" d="M25.7,35.4c0.3,0.8,0.5,4.1,2.5,4.1c0.8,0,1-2.7,1-2.8l0.4-2.4c0.2-1.2,0.3-2.4,0.4-3.6
			c0.5-8.2,1.9-19.5,3.3-23C34.8,4.2,38.8-1,42,4.8c2.4,4.2,0.8,4.1-2.3,5.6c-0.5,0.3-1,0.6-1.5,0.9c-1.8,1.3-3,3.2-3.6,5.3L34.5,17
			c-1.4,4.9-1.6,10-2.1,15.1c-0.3,2.9-1.7,14.1-3.4,14.1c-0.8,0-2.8,0-3.3-0.9c-4.4-7.6-7.9-39.9-7.9-39.9
			C15.1,13.3,6.9,22.7,3.6,17.7C-1.6,10,3.2,9.9,7.5,8.5c3.9-1.2,5.1-3.5,8.2-5.7c4.7-3.3,5.4,2,6,10.7c0.6,8.5,0.2,7.2,2.2,15.6
			l0.4,1.5L25.7,35.4z"/>
	</g>
	<g>
		<path class="st0" d="M97,37.7c0.5,0,0.9,0.3,0.9,0.8c0.2,1.2,0.4,1.7,2.5,4.2c1,1.3,1,1.3-0.8,2.8c-1.7,1.3-4.7,0.8-5.2,0.2
			c-1.2-1.5-0.6-0.7-1.4-1.8c0,0,0,0-0.1-0.1c-1.7-2.5,0-5.9,3-6L97,37.7z"/>
	</g>
</g>
</svg>
