<?xml version="1.0" encoding="utf-8"?>
<!-- Generator: Adobe Illustrator 28.1.0, SVG Export Plug-In . SVG Version: 6.00 Build 0)  -->
<svg version="1.1" id="Layer_1" xmlns="http://www.w3.org/2000/svg" xmlns:xlink="http://www.w3.org/1999/xlink" x="0px" y="0px"
	 viewBox="0 0 687 196" style="enable-background:new 0 0 687 196;" xml:space="preserve">
<style type="text/css">
	.st0{fill:#0C0D0D;}
</style>
<g>
	<path class="st0" d="M84.1,11h55.6v38L105,61.6v1.8c17.7,2.9,34.8,12.9,34.8,32.3v86.1H76.1V78.9C74,79.2,64.9,81,64.9,83.1v98.7H9
		V11h56.2v51.8h9.3L84.1,11z"/>
	<path class="st0" d="M273.9,148.6c0,48.5-126.1,48.5-126.1,0V11H204v157.9c2.1-0.3,11.2-2.1,11.2-4.2V11H274v137.6H273.9z"/>
	<path class="st0" d="M282.5,11h93.7c23.3,0,32.4,18.4,32.4,38.6v93.5c0,20.2-9.1,38.6-32.4,38.6h-93.7V11z M333.8,168.6H345V24.1
		h-11.2V168.6z"/>
	<path class="st0" d="M542.4,148.6c0,48.5-126.1,48.5-126.1,0V11h56.2v157.9c2.1-0.3,11.2-2.1,11.2-4.2V11h58.8v137.6H542.4z"/>
	<path class="st0" d="M551.1,11h93.7c23.3,0,32.4,18.4,32.4,38.6v44.1c0,28.5-36.3,39.6-52.8,15.1h-3.2c12.7,28.7,56,18.4,56,18.4
		v54.4h-26.9c-20,0-36.8-11.1-36.8-30.9V113c0-2.1-8.8-3.9-10.9-4.2v72.8H551L551.1,11L551.1,11z M613.5,24.1h-11.2v59.6
		c0,2.2,9.1,3.9,11.2,4.2V24.1z"/>
</g>
</svg>
